<?xml version="1.0" standalone="no"?>
<!DOCTYPE svg PUBLIC "-//W3C//DTD SVG 20010904//EN"
 "http://www.w3.org/TR/2001/REC-SVG-20010904/DTD/svg10.dtd">
<svg version="1.0" xmlns="http://www.w3.org/2000/svg"
 width="1024.000000pt" height="1024.000000pt" viewBox="0 0 1024.000000 1024.000000"
 preserveAspectRatio="xMidYMid meet">
<metadata>
Created by potrace 1.11, written by Peter Selinger 2001-2013
</metadata>
<g transform="translate(0.000000,1024.000000) scale(0.100000,-0.100000)"
fill="#000000" stroke="none">
<path d="M5119 9886 c-2 -2 -83 -7 -180 -10 -96 -4 -191 -8 -210 -11 -19 -2
-63 -6 -99 -9 -36 -4 -74 -8 -85 -10 -11 -2 -46 -7 -79 -11 -32 -3 -70 -9 -85
-11 -137 -23 -222 -40 -311 -61 -58 -13 -114 -26 -125 -27 -11 -2 -33 -8 -48
-15 -15 -6 -31 -10 -35 -9 -4 1 -14 -1 -22 -5 -8 -3 -55 -17 -105 -32 -49 -15
-146 -47 -215 -72 -69 -25 -132 -46 -140 -47 -8 0 -17 -4 -20 -8 -3 -3 -41
-21 -85 -38 -44 -17 -86 -36 -92 -42 -7 -6 -21 -7 -30 -4 -10 4 -14 4 -11 0 6
-5 -191 -111 -339 -183 -18 -8 -33 -19 -33 -23 0 -4 -4 -8 -9 -8 -8 0 -68 -34
-156 -87 -11 -7 -27 -15 -35 -19 -8 -4 -17 -10 -20 -14 -3 -3 -45 -32 -95 -65
-49 -32 -111 -75 -136 -95 -26 -19 -59 -44 -74 -55 -16 -11 -33 -24 -39 -30
-35 -32 -85 -63 -91 -57 -5 4 -5 2 -2 -4 4 -7 -3 -19 -16 -27 -12 -8 -32 -24
-45 -35 -105 -93 -170 -151 -192 -174 -15 -16 -32 -28 -39 -28 -6 0 -11 -5
-11 -11 0 -18 -50 -60 -62 -53 -6 4 -8 3 -5 -3 3 -5 -29 -46 -72 -90 -43 -44
-88 -94 -100 -112 -12 -17 -27 -29 -32 -25 -5 3 -8 2 -7 -3 5 -16 -41 -65 -53
-57 -8 4 -9 3 -5 -4 6 -10 -46 -82 -104 -145 -11 -11 -20 -24 -20 -28 0 -4 -6
-14 -13 -21 -38 -40 -227 -313 -227 -327 0 -5 -3 -11 -8 -13 -6 -2 -56 -84
-144 -233 -10 -16 -25 -47 -34 -67 -9 -21 -20 -38 -25 -38 -5 0 -9 -5 -9 -11
0 -7 -24 -62 -54 -123 -71 -148 -106 -223 -106 -233 -1 -4 -9 -26 -20 -48 -11
-22 -19 -46 -20 -53 0 -7 -5 -10 -12 -6 -6 4 -8 3 -4 -4 7 -11 -43 -155 -56
-160 -4 -2 -6 -7 -3 -11 2 -4 -7 -39 -20 -77 -24 -69 -92 -307 -101 -354 -3
-14 -13 -61 -24 -105 -10 -44 -22 -101 -25 -127 -4 -26 -10 -46 -14 -44 -3 2
-7 -17 -7 -42 -1 -26 -4 -58 -8 -72 -3 -14 -8 -45 -11 -70 -3 -25 -8 -65 -11
-90 -4 -25 -8 -58 -9 -75 -2 -16 -3 -30 -4 -30 -3 0 -9 -109 -16 -265 -6 -138
-7 -317 -2 -368 2 -17 -1 -32 -6 -32 -5 0 -5 -6 2 -13 8 -10 7 -17 -2 -27 -6
-7 -7 -10 -1 -7 7 4 12 -13 13 -51 4 -112 20 -274 37 -373 2 -15 6 -47 9 -70
3 -24 15 -90 26 -147 16 -82 18 -106 8 -118 -10 -12 -9 -13 5 -8 12 4 16 0 16
-15 0 -12 -1 -22 -2 -23 -1 -2 3 -12 9 -23 6 -11 14 -36 17 -55 3 -19 18 -78
32 -130 15 -52 27 -107 28 -122 0 -14 4 -25 7 -23 3 2 15 -25 26 -61 12 -35
18 -62 14 -59 -5 2 3 -17 15 -42 20 -38 22 -49 11 -61 -10 -13 -9 -14 1 -8 14
8 47 -58 37 -74 -4 -6 -2 -10 3 -10 13 0 34 -59 25 -73 -3 -6 -1 -7 5 -3 11 7
16 -8 15 -42 -1 -7 1 -11 4 -8 5 5 82 -155 105 -219 6 -16 14 -32 17 -35 16
-14 80 -154 74 -164 -3 -6 -3 -8 2 -4 13 12 115 -173 109 -197 -4 -14 -3 -16
4 -7 12 17 37 -11 28 -33 -3 -8 -1 -14 5 -12 6 1 16 -7 22 -18 7 -11 22 -35
34 -54 12 -19 19 -39 16 -44 -3 -6 -1 -7 5 -4 5 4 21 -12 35 -35 14 -24 36
-56 50 -72 14 -16 31 -41 39 -55 7 -14 23 -37 36 -51 13 -14 31 -37 40 -52 9
-16 20 -28 24 -28 4 0 8 -6 8 -14 0 -8 4 -16 8 -18 4 -1 23 -23 42 -47 19 -24
44 -54 55 -65 11 -12 35 -39 53 -61 18 -22 58 -65 87 -96 30 -31 51 -59 48
-63 -3 -3 -2 -6 3 -6 13 0 250 -233 246 -243 -1 -4 1 -6 5 -5 15 3 43 -14 37
-23 -3 -5 1 -9 9 -9 19 0 49 -34 40 -45 -5 -4 -3 -5 3 -2 7 4 26 -7 44 -23 18
-17 36 -30 40 -30 5 0 10 -4 12 -8 2 -4 40 -37 85 -71 45 -35 80 -68 76 -74
-3 -6 -1 -7 6 -3 6 4 29 -7 53 -25 22 -18 103 -74 179 -124 76 -51 135 -96
131 -100 -4 -5 -2 -5 5 -1 10 6 47 -8 63 -24 7 -7 40 -27 80 -48 90 -48 391
-201 395 -202 3 0 10 0 16 0 5 0 7 -6 3 -12 -4 -7 -4 -10 0 -6 10 8 97 -22 91
-32 -3 -4 1 -8 8 -7 32 1 48 -4 42 -13 -4 -6 1 -7 11 -3 12 4 15 3 10 -5 -5
-8 -2 -10 9 -6 8 4 21 2 28 -4 6 -5 31 -16 55 -23 29 -8 39 -15 30 -21 -8 -5
-1 -6 16 -2 22 5 27 4 21 -6 -5 -9 -4 -11 4 -6 6 4 55 -8 109 -26 53 -18 99
-33 102 -34 3 0 12 -3 20 -6 30 -12 115 -32 123 -30 4 1 7 -3 7 -9 0 -5 4 -8
9 -5 4 3 48 -5 97 -18 49 -14 109 -27 134 -31 25 -4 50 -11 56 -16 6 -5 13 -6
16 -3 3 3 26 0 49 -6 24 -7 55 -13 69 -15 31 -3 126 -15 160 -21 14 -2 48 -6
75 -9 28 -3 59 -8 70 -10 19 -4 199 -17 260 -19 17 -1 33 -5 37 -11 5 -7 8 -6
8 0 0 6 12 10 28 9 15 -1 27 -3 27 -4 0 -3 253 0 360 4 122 6 178 10 295 22
36 4 78 8 93 9 15 2 31 5 34 9 4 3 18 -1 32 -11 25 -16 25 -16 11 2 -14 17
-12 17 22 13 20 -2 34 0 32 4 -3 4 6 8 19 8 13 0 78 11 143 24 66 13 133 27
149 30 17 3 48 10 70 16 22 6 51 13 65 16 14 3 63 17 110 30 47 14 108 32 135
40 28 8 55 16 60 18 6 2 19 6 30 10 11 5 44 16 73 27 124 45 169 62 200 76 18
8 40 12 48 9 8 -3 13 -2 10 3 -5 8 142 78 156 73 4 -1 8 2 8 8 0 5 9 10 20 10
11 0 20 4 20 8 0 5 17 15 37 23 20 8 44 19 54 24 10 6 48 26 86 45 37 19 71
39 74 44 4 5 14 6 24 3 9 -4 14 -3 10 3 -3 6 2 13 12 17 10 3 31 15 46 26 24
16 30 17 45 5 15 -12 16 -11 4 4 -12 15 -10 19 16 32 16 8 33 12 37 8 5 -4 5
-2 2 4 -8 14 20 27 36 17 7 -3 9 -3 5 2 -8 8 33 45 51 45 6 0 11 5 11 11 0 5
5 7 10 4 6 -3 10 -2 10 3 0 9 76 62 90 62 4 0 13 7 20 15 22 26 158 114 165
107 5 -4 5 -2 1 5 -7 12 80 80 96 75 5 -1 7 2 4 7 -8 12 43 53 57 44 5 -3 7
-2 4 4 -3 5 4 18 16 28 61 50 167 146 244 221 48 46 91 80 96 77 6 -3 7 -2 4
4 -8 12 139 169 154 165 6 -1 7 3 3 9 -4 7 -1 17 7 23 8 6 30 31 50 56 20 25
45 55 56 67 11 12 28 34 39 48 10 15 24 32 29 39 6 6 21 26 34 44 12 18 27 29
33 26 6 -4 8 -3 5 3 -8 13 60 109 74 105 6 -1 8 2 5 7 -6 9 34 77 52 91 4 3
16 21 27 41 59 104 141 227 149 222 5 -4 6 -1 3 4 -9 14 17 65 27 55 4 -4 6
-2 4 3 -5 17 34 95 45 88 6 -3 8 -2 4 3 -9 15 56 138 67 127 4 -4 5 -1 1 7 -7
19 59 153 70 142 5 -4 5 -2 1 5 -4 7 1 29 10 50 10 21 18 40 19 43 9 35 18 49
27 44 6 -4 8 -3 5 3 -8 12 14 84 23 78 4 -3 8 1 7 8 -1 34 4 48 15 41 6 -4 8
-3 5 3 -5 8 58 212 90 293 3 8 7 22 9 30 1 8 10 40 19 70 9 30 18 62 20 70 2
8 4 15 5 15 1 0 3 9 4 20 2 11 7 36 11 55 5 19 9 37 10 40 1 3 4 19 8 35 4 17
10 41 13 55 3 14 8 36 11 50 3 14 5 33 5 43 0 9 2 15 6 13 4 -2 8 10 8 27 1
29 11 96 19 137 2 8 4 25 4 38 1 16 5 21 14 16 9 -6 9 -5 0 8 -7 8 -10 18 -7
21 4 3 8 23 9 44 2 21 5 63 9 93 3 30 8 84 11 120 23 251 18 681 -11 900 -3
19 -7 53 -9 75 -9 98 -68 436 -84 485 -5 14 -14 52 -21 85 -7 33 -22 88 -32
123 -11 34 -21 68 -22 75 -2 6 -6 19 -9 27 -3 8 -12 35 -18 60 -15 54 -14 51
-22 70 -3 8 -13 35 -21 60 -8 25 -24 68 -35 96 -11 29 -17 54 -14 58 4 3 2 6
-3 6 -6 0 -16 17 -23 38 -8 20 -27 65 -42 100 -16 34 -29 65 -29 69 0 6 -94
203 -111 233 -4 8 -24 46 -44 83 -20 38 -47 87 -61 108 -13 21 -22 39 -19 39
3 0 -3 10 -14 22 -11 11 -18 25 -15 30 3 4 1 8 -3 8 -5 0 -17 15 -27 33 -11
17 -36 58 -58 90 -21 31 -36 57 -33 57 3 0 -2 8 -11 18 -41 45 -104 144 -98
154 4 6 3 8 -4 4 -13 -8 -55 48 -44 59 4 5 2 6 -3 3 -6 -4 -37 29 -69 73 -33
43 -64 79 -70 79 -5 0 -7 2 -4 5 3 3 -6 18 -21 33 -14 15 -53 59 -86 97 -33
38 -115 125 -181 192 -67 67 -119 125 -115 129 3 3 1 4 -6 2 -6 -2 -35 20 -65
47 -70 65 -162 143 -213 181 -22 16 -50 38 -62 49 -11 11 -47 38 -79 60 -31
22 -62 45 -68 50 -6 6 -38 28 -71 50 -33 21 -62 42 -65 45 -3 4 -12 10 -20 13
-8 4 -35 21 -60 37 -25 16 -59 37 -77 46 -18 10 -29 22 -26 27 3 6 2 8 -3 4
-11 -6 -197 97 -188 105 3 3 -1 5 -8 4 -7 0 -74 29 -148 66 -113 56 -197 95
-220 103 -3 1 -18 8 -35 15 -16 7 -32 14 -35 15 -3 1 -18 7 -33 13 -15 7 -39
15 -53 18 -13 3 -27 10 -30 15 -3 5 -12 9 -21 9 -8 0 -29 6 -46 14 -18 8 -63
24 -102 37 -38 13 -72 27 -73 32 -2 4 -7 5 -11 3 -4 -3 -45 6 -92 20 -82 24
-289 78 -339 88 -48 10 -75 15 -100 20 -14 2 -36 7 -50 10 -25 6 -49 10 -145
22 -27 3 -53 8 -57 10 -8 5 -131 17 -165 16 -13 0 -23 3 -23 7 0 3 -30 7 -68
8 -149 3 -387 15 -393 19 -3 2 -8 2 -10 0z"/>
<path d="M355 4531 c-3 -5 -2 -12 3 -15 5 -3 9 1 9 9 0 17 -3 19 -12 6z"/>
<path d="M1276 2222 c-3 -5 1 -9 9 -9 8 0 12 4 9 9 -3 4 -7 8 -9 8 -2 0 -6 -4
-9 -8z"/>
<path d="M4790 326 c0 -2 7 -7 16 -10 8 -3 12 -2 9 4 -6 10 -25 14 -25 6z"/>
</g>
</svg>
